<mxfile host="app.diagrams.net" modified="2023-01-10T01:35:26.085Z" agent="5.0 (Windows NT 10.0; Win64; x64) AppleWebKit/537.36 (KHTML, like Gecko) Chrome/108.0.0.0 Safari/537.36 Edg/108.0.1462.54" version="20.8.3" etag="ITWw23AVAmQv6MWo1gLy" type="github">
  <diagram id="fAA8KP4As-wqJSzxBx1F" name="第 1 页">
    <mxGraphModel dx="1731" dy="363" grid="1" gridSize="10" guides="1" tooltips="1" connect="1" arrows="1" fold="1" page="1" pageScale="1" pageWidth="1169" pageHeight="827" math="0" shadow="0">
      <root>
        <mxCell id="0" />
        <mxCell id="1" parent="0" />
        <mxCell id="Io1KwBM28sgN_Z0KbYMu-30" value="" style="edgeStyle=orthogonalEdgeStyle;rounded=0;orthogonalLoop=1;jettySize=auto;html=1;strokeColor=#000000;fontFamily=Georgia;fontSize=16;endArrow=none;endFill=0;" edge="1" parent="1" source="Io1KwBM28sgN_Z0KbYMu-14" target="Io1KwBM28sgN_Z0KbYMu-29">
          <mxGeometry relative="1" as="geometry" />
        </mxCell>
        <mxCell id="Io1KwBM28sgN_Z0KbYMu-31" value="" style="edgeStyle=orthogonalEdgeStyle;rounded=0;orthogonalLoop=1;jettySize=auto;html=1;strokeColor=#000000;fontFamily=Georgia;fontSize=16;endArrow=none;endFill=0;" edge="1" parent="1" source="Io1KwBM28sgN_Z0KbYMu-14" target="Io1KwBM28sgN_Z0KbYMu-29">
          <mxGeometry relative="1" as="geometry" />
        </mxCell>
        <mxCell id="Io1KwBM28sgN_Z0KbYMu-33" value="" style="edgeStyle=orthogonalEdgeStyle;rounded=0;orthogonalLoop=1;jettySize=auto;html=1;strokeColor=#000000;fontFamily=Georgia;fontSize=16;endArrow=none;endFill=0;exitX=1;exitY=0.5;exitDx=0;exitDy=0;entryX=0;entryY=0.5;entryDx=0;entryDy=0;" edge="1" parent="1" source="Io1KwBM28sgN_Z0KbYMu-14" target="Io1KwBM28sgN_Z0KbYMu-32">
          <mxGeometry relative="1" as="geometry">
            <mxPoint x="-830" y="40" as="sourcePoint" />
            <Array as="points">
              <mxPoint x="-970" y="189" />
              <mxPoint x="-970" y="305" />
            </Array>
          </mxGeometry>
        </mxCell>
        <mxCell id="Io1KwBM28sgN_Z0KbYMu-34" style="edgeStyle=orthogonalEdgeStyle;rounded=0;orthogonalLoop=1;jettySize=auto;html=1;exitX=1;exitY=0.5;exitDx=0;exitDy=0;entryX=0;entryY=0.5;entryDx=0;entryDy=0;strokeColor=#000000;fontFamily=Georgia;fontSize=16;endArrow=none;endFill=0;" edge="1" parent="1" source="Io1KwBM28sgN_Z0KbYMu-14" target="Io1KwBM28sgN_Z0KbYMu-23">
          <mxGeometry relative="1" as="geometry" />
        </mxCell>
        <mxCell id="Io1KwBM28sgN_Z0KbYMu-14" value="techniques" style="whiteSpace=wrap;html=1;align=center;verticalAlign=middle;treeFolding=1;treeMoving=1;sketch=1;fontFamily=Georgia;fontSize=16;curveFitting=1;jiggle=2;fillColor=#dae8fc;strokeColor=#6c8ebf;rounded=1;" vertex="1" parent="1">
          <mxGeometry x="-1140" y="164" width="140" height="50" as="geometry" />
        </mxCell>
        <mxCell id="Io1KwBM28sgN_Z0KbYMu-23" value="L2-normalization" style="whiteSpace=wrap;html=1;align=center;verticalAlign=middle;treeFolding=1;treeMoving=1;sketch=1;fontFamily=Georgia;fontSize=16;curveFitting=1;jiggle=2;fillColor=#dae8fc;strokeColor=#6c8ebf;rounded=1;" vertex="1" parent="1">
          <mxGeometry x="-940" y="50" width="140" height="50" as="geometry" />
        </mxCell>
        <mxCell id="Io1KwBM28sgN_Z0KbYMu-29" value="weight decay" style="whiteSpace=wrap;html=1;align=center;verticalAlign=middle;treeFolding=1;treeMoving=1;sketch=1;fontFamily=Georgia;fontSize=16;curveFitting=1;jiggle=2;fillColor=#dae8fc;strokeColor=#6c8ebf;rounded=1;" vertex="1" parent="1">
          <mxGeometry x="-940" y="164" width="140" height="50" as="geometry" />
        </mxCell>
        <mxCell id="Io1KwBM28sgN_Z0KbYMu-32" value="MaxNorm" style="whiteSpace=wrap;html=1;align=center;verticalAlign=middle;treeFolding=1;treeMoving=1;sketch=1;fontFamily=Georgia;fontSize=16;curveFitting=1;jiggle=2;fillColor=#dae8fc;strokeColor=#6c8ebf;rounded=1;" vertex="1" parent="1">
          <mxGeometry x="-940" y="280" width="140" height="50" as="geometry" />
        </mxCell>
        <mxCell id="Io1KwBM28sgN_Z0KbYMu-39" value="two-stage&lt;br&gt;approach" style="whiteSpace=wrap;html=1;align=center;verticalAlign=middle;treeFolding=1;treeMoving=1;newEdgeStyle={&quot;edgeStyle&quot;:&quot;elbowEdgeStyle&quot;,&quot;startArrow&quot;:&quot;none&quot;,&quot;endArrow&quot;:&quot;none&quot;};rounded=1;sketch=1;fontFamily=Georgia;fontSize=16;fillColor=#dae8fc;strokeColor=#6c8ebf;curveFitting=1;jiggle=2;" vertex="1" parent="1">
          <mxGeometry x="-1140" y="420" width="100" height="60" as="geometry" />
        </mxCell>
        <mxCell id="Io1KwBM28sgN_Z0KbYMu-40" value="" style="edgeStyle=elbowEdgeStyle;elbow=vertical;sourcePerimeterSpacing=0;targetPerimeterSpacing=0;startArrow=none;endArrow=none;rounded=0;curved=0;strokeColor=#060707;fontFamily=Georgia;fontSize=16;fillColor=#dae8fc;entryX=1;entryY=0.5;entryDx=0;entryDy=0;" edge="1" target="Io1KwBM28sgN_Z0KbYMu-39" parent="1">
          <mxGeometry relative="1" as="geometry">
            <mxPoint x="-980" y="450" as="sourcePoint" />
          </mxGeometry>
        </mxCell>
      </root>
    </mxGraphModel>
  </diagram>
</mxfile>
